PathFileType	4	(X/Y/Z)	C:\Users\Basilio\Documents\Thesis Gigler\squatting_fais\c3dfiles\073\SJ_pre5\markers_experimental.trc
DataRate	CameraRate	NumFrames	NumMarkers	Units	OrigDataRate	OrigDataStartFrame	OrigNumFrames
200.000000	200.000000	4	61	mm	200.000000	170	1360
Frame#	Time	FHD			LBHD			RBHD			C7			T10			CLAV			LSHO			LUUPA			LMUPA			LDUPA			LLEP			LMEP			LRAD			LUL			LRFIN			RSHO			RUPA1			RMUPA			RDUPA			RLEP			RMEP			RRAD			RUL			RUFIN			LASI			RASI			USACR			LSACR			RSACR			LTHI1			LTHI2			LTHI3			LTHI4			LLFC			LMFC			LTIB1			LTIB2			LTIB3			LTIB4			LLMAL			LMMAL			LHEE			LMT1			LMT2			LMT5			RTHI			RTHI2			RTHI3			RTHI4			RLFC			RMFC			RTIB1			RTIB2			RTIB3			RTIB4			RLMAL			RMMAL			RHEE			RMT1			RMT2			RMT5			
		X1	Y1	Z1	X2	Y2	Z2	X3	Y3	Z3	X4	Y4	Z4	X5	Y5	Z5	X6	Y6	Z6	X7	Y7	Z7	X8	Y8	Z8	X9	Y9	Z9	X10	Y10	Z10	X11	Y11	Z11	X12	Y12	Z12	X13	Y13	Z13	X14	Y14	Z14	X15	Y15	Z15	X16	Y16	Z16	X17	Y17	Z17	X18	Y18	Z18	X19	Y19	Z19	X20	Y20	Z20	X21	Y21	Z21	X22	Y22	Z22	X23	Y23	Z23	X24	Y24	Z24	X25	Y25	Z25	X26	Y26	Z26	X27	Y27	Z27	X28	Y28	Z28	X29	Y29	Z29	X30	Y30	Z30	X31	Y31	Z31	X32	Y32	Z32	X33	Y33	Z33	X34	Y34	Z34	X35	Y35	Z35	X36	Y36	Z36	X37	Y37	Z37	X38	Y38	Z38	X39	Y39	Z39	X40	Y40	Z40	X41	Y41	Z41	X42	Y42	Z42	X43	Y43	Z43	X44	Y44	Z44	X45	Y45	Z45	X46	Y46	Z46	X47	Y47	Z47	X48	Y48	Z48	X49	Y49	Z49	X50	Y50	Z50	X51	Y51	Z51	X52	Y52	Z52	X53	Y53	Z53	X54	Y54	Z54	X55	Y55	Z55	X56	Y56	Z56	X57	Y57	Z57	X58	Y58	Z58	X59	Y59	Z59	X60	Y60	Z60	X61	Y61	Z61	

171	0.85	-169.3614044189453	1646.185791015625	-931.3947753906252	-306.3029479980469	1622.373168945313	-946.054138183594	-320.8718261718751	1605.23291015625	-811.9534912109377	-362.1796569824219	1520.148803710938	-874.9511718750002	-473.1165161132814	1193.410278320313	-889.235778808594	-255.7596435546876	1414.1259765625	-885.0118408203127	-287.7453002929688	1451.846313476563	-1054.723876953125	-380.8843383789063	1379.859619140625	-1170.9755859375	-366.9775390625001	1331.084594726563	-1177.035278320313	-416.8533325195314	1335.95947265625	-1212.385375976563	-460.3113403320314	1255.425048828125	-1264.671752929688	-531.3166503906251	1245.47265625	-1220.5751953125	-403.978485107422	1038.215576171875	-1121.5546875	-371.7601623535157	1016.127136230469	-1184.537231445313	-365.7496032714844	1023.222106933594	-1076.945556640625	-255.5807189941407	1430.000854492188	-713.9594116210939	-339.8983459472657	1351.869995117188	-569.5420532226564	-331.6191711425782	1302.8349609375	-566.8255004882814	-375.8398742675782	1310.12060546875	-526.5545654296876	-406.9913024902345	1232.641845703125	-484.1621398925782	-488.0763244628907	1234.399780273438	-531.3928833007814	-424.6406555175782	1023.041870117188	-649.6697387695314	-377.8686218261719	991.137145996094	-597.8854980468751	-367.0917358398438	1012.918701171875	-697.6901855468751	-321.8018188476563	1019.017822265625	-1026.450927734375	-318.9593505859376	1001.21923828125	-777.2869262695315	-498.9590148925782	1083.342163085938	-887.4299926757815	-511.3508300781251	1055.451171875	-915.368591308594	-514.8873901367189	1053.0732421875	-859.4573364257815	-353.2469177246094	718.7380981445314	-1127.77490234375	-310.2639770507813	645.5149536132814	-1128.27783203125	-266.7982788085938	649.0368041992189	-1104.215942382813	-333.3318786621094	591.0655517578126	-1129.086181640625	-330.2668457031251	533.0657348632814	-1142.27001953125	-315.9994812011719	502.0673217773439	-1009.674072265625	-298.1127624511719	326.3033447265626	-1130.83837890625	-364.9353637695313	301.8801574707032	-1182.527709960938	-325.5093994140626	287.7320251464844	-1166.81689453125	-331.3036499023438	205.3683166503907	-1146.423828125	-407.3738403320314	94.87872314453126	-1186.501586914063	-390.8150329589845	109.9795379638672	-1098.843017578125	-463.371551513672	54.67328262329103	-1144.9404296875	-236.6777801513672	62.3503761291504	-1122.270751953125	-237.3318023681641	67.43128967285158	-1160.130615234375	-275.7135620117188	45.15023803710938	-1213.150756835938	-404.2705993652345	788.830261230469	-683.8566284179689	-364.4435119628907	736.0073242187501	-678.4396972656251	-331.5192260742188	739.2457275390626	-683.9411010742189	-386.9137573242189	655.3364868164064	-689.0637817382814	-360.7894897460938	507.5449218750001	-687.0579833984376	-352.6782531738282	480.7620239257814	-813.6208496093752	-326.1264343261719	333.7793884277344	-752.4566650390626	-356.5910949707032	262.2847900390626	-675.8896484375001	-332.2676086425782	254.4273834228516	-717.3125610351564	-351.4311218261719	206.8888244628907	-744.2592163085939	-411.5741271972657	85.77442169189455	-677.9796752929689	-396.852020263672	99.08390808105472	-766.4885864257814	-475.4578552246095	43.22010803222657	-731.5216674804689	-245.7891998291016	55.52701950073244	-720.5653076171876	-249.9014739990235	54.72413253784181	-679.6948242187501	-294.1487426757813	33.50314331054688	-634.2481079101564	
172	0.855	-167.9078674316407	1645.694946289063	-931.241882324219	-305.5574645996094	1621.951293945313	-945.8848266601565	-320.0837707519532	1604.658203125	-811.6680908203127	-361.3718872070313	1519.785888671875	-874.7303466796877	-473.3489379882814	1193.40869140625	-889.304382324219	-255.2233581542969	1413.494262695313	-884.9273681640627	-287.0476379394532	1451.325073242188	-1054.55859375	-380.3254089355469	1379.463500976563	-1170.903076171875	-366.6543884277344	1330.800537109375	-1176.950073242188	-416.3204345703126	1335.74609375	-1212.495361328125	-459.9407653808595	1255.284423828125	-1264.720458984375	-531.0125732421876	1245.516723632813	-1220.66796875	-404.1983642578126	1038.096435546875	-1121.399658203125	-371.8856506347657	1015.95751953125	-1184.320190429688	-365.9783630371094	1023.139343261719	-1076.765380859375	-255.0483551025391	1429.358276367188	-713.8907470703126	-339.3182678222657	1351.389770507813	-569.4277343750001	-331.0186767578126	1302.388305664063	-566.6453857421876	-375.1233825683594	1309.716186523438	-526.2764282226564	-406.3392639160157	1232.263671875	-483.907440185547	-487.6349487304689	1234.23193359375	-530.8413696289064	-425.0089416503907	1022.733276367188	-649.3982543945314	-378.0577697753907	990.656921386719	-597.8446044921876	-367.6122741699219	1012.530517578125	-697.6209106445314	-322.1505737304688	1018.858215332031	-1026.232421875	-319.6636352539063	1000.891174316406	-777.1776123046877	-499.4510192871095	1083.220825195313	-887.4990234375002	-511.8303222656251	1055.33642578125	-915.3935546875002	-515.4584350585939	1052.980224609375	-859.4556274414065	-352.4518737792969	718.8211669921876	-1127.920166015625	-309.4695739746094	645.5771484375001	-1128.300659179688	-266.1853332519532	649.0911254882814	-1104.301025390625	-332.4639282226563	591.1030883789064	-1129.290649414063	-329.5533752441407	533.0192260742189	-1142.587524414063	-315.7106018066407	502.0661010742189	-1009.865478515625	-297.7471923828126	326.2885742187501	-1131.1533203125	-364.5503845214844	301.8400268554688	-1182.762329101563	-324.9281616210938	287.8061828613282	-1167.1259765625	-330.9119262695313	205.312973022461	-1146.714599609375	-407.1348571777345	94.96701812744142	-1186.725463867188	-390.5591125488282	110.0632934570313	-1099.2646484375	-463.4452514648439	55.24696350097658	-1145.181518554688	-236.6877746582032	60.9077491760254	-1122.102294921875	-237.081771850586	66.21834564208986	-1160.22802734375	-275.7233886718751	44.17998504638673	-1213.119384765625	-404.5375061035157	788.5130004882815	-683.9277343750001	-364.4891357421876	735.7234497070314	-678.3769531250001	-331.6190795898438	739.1395263671876	-683.8516235351564	-386.5960693359376	654.9996337890626	-689.0899658203126	-360.0987548828126	507.3973999023439	-687.1088867187501	-351.6577758789063	480.7197875976564	-813.6240844726565	-325.5864562988282	333.6308593750001	-752.4413452148439	-356.2280883789063	262.1466979980469	-675.9425048828126	-331.9129028320313	254.2769470214844	-717.4104614257814	-351.1365966796876	206.7865905761719	-744.2724609375001	-411.5079345703126	85.79412078857423	-678.0197753906251	-396.797332763672	99.07427978515628	-766.5812988281251	-475.4458618164064	43.22160720825196	-731.5287475585939	-245.7366333007813	55.58631515502931	-720.5528564453126	-249.9240264892579	54.60559082031251	-679.7933349609376	-294.1482543945313	33.5025749206543	-634.2493286132814	
173	0.86	-166.7409210205078	1645.119873046875	-930.993103027344	-304.4674987792969	1621.523071289063	-945.7202758789065	-319.2005004882813	1604.091186523438	-811.5727539062502	-360.5596313476563	1519.410278320313	-874.7069091796877	-473.5762329101564	1193.373779296875	-889.5181274414065	-254.5794067382813	1412.882690429688	-884.8664550781252	-286.3410339355469	1450.87353515625	-1054.623046875	-379.7152404785157	1379.099365234375	-1171.0458984375	-366.0665283203126	1330.397094726563	-1177.023071289063	-415.775604248047	1335.4541015625	-1212.627807617188	-459.5387573242189	1255.1181640625	-1264.803344726563	-530.6859741210939	1245.535888671875	-1220.8212890625	-404.3616333007814	1037.929809570313	-1121.326171875	-371.9732971191407	1015.732849121094	-1184.1064453125	-366.2253723144532	1022.938659667969	-1076.5810546875	-254.4871673583985	1428.72021484375	-713.9506225585939	-338.7543945312501	1350.979248046875	-569.4234008789064	-330.4395141601563	1302.01708984375	-566.5349121093751	-374.4873657226563	1309.281372070313	-526.1810302734376	-405.7120361328126	1231.89794921875	-483.6895141601564	-487.0979614257814	1234.082763671875	-530.4139404296876	-425.2384033203126	1022.458435058594	-649.2534790039064	-378.3486633300782	990.2958984375002	-597.8023681640626	-368.0958557128907	1012.241455078125	-697.5571899414064	-322.4794616699219	1018.626525878906	-1026.081787109375	-320.3354492187501	1000.596557617188	-777.1582641601565	-499.9606018066407	1083.052490234375	-887.5941162109377	-512.0854492187501	1055.093872070313	-915.4497680664065	-515.9514770507814	1052.901611328125	-859.4913330078127	-351.8063659667969	718.8153076171876	-1128.092041015625	-308.7448120117188	645.4891967773439	-1128.33837890625	-265.6310119628907	649.0831298828126	-1104.290649414063	-331.8086853027344	591.0895996093751	-1129.521606445313	-328.9263610839844	532.9323730468751	-1142.925659179688	-315.4776000976563	501.9667358398439	-1010.18798828125	-297.3372497558594	326.2309265136719	-1131.404296875	-364.1693725585938	301.7598571777344	-1183.034790039063	-324.5813903808594	287.6831665039063	-1167.473999023438	-330.5311584472657	205.2585144042969	-1146.96240234375	-406.7307128906251	95.00463867187501	-1186.902221679688	-390.209930419922	110.0660476684571	-1099.622924804688	-463.4505920410157	55.81458282470705	-1145.40966796875	-236.6945495605469	59.51744079589845	-1121.942504882813	-237.5550079345704	64.0967254638672	-1160.5859375	-275.6805419921876	43.06854629516602	-1213.055786132813	-404.8312377929689	788.1838378906252	-684.0298461914064	-364.6032714843751	735.4888305664064	-678.2968750000001	-331.7315979003907	739.0811767578126	-683.8209838867189	-386.3564758300782	654.7094726562501	-689.1417846679689	-359.3869628906251	507.221160888672	-687.0780639648439	-350.5664672851563	480.6085205078126	-813.6198730468752	-324.7492065429688	333.4759521484376	-752.5382690429689	-355.9051818847657	262.0552368164063	-676.0451660156251	-331.5348510742188	254.1375274658204	-717.3934326171876	-350.7244873046876	206.6387481689454	-744.2633666992189	-411.3403930664064	85.83109283447267	-678.0347290039064	-396.7710876464845	99.09338378906253	-766.6511840820314	-475.4295349121095	43.22705459594727	-731.5768432617189	-245.7299804687501	55.54509735107423	-720.6362304687501	-249.9090728759766	54.68468475341798	-679.7130737304689	-294.1289672851563	33.47795104980469	-634.2987670898439	
174	0.865	-165.614501953125	1644.31298828125	-930.622985839844	-303.4696350097657	1620.95166015625	-945.593933105469	-318.2115478515626	1603.3935546875	-811.2923583984377	-359.7327880859376	1518.951416015625	-874.6841430664065	-473.8056640625001	1193.390502929688	-889.7418212890627	-254.0018463134766	1412.152587890625	-884.8204345703127	-285.4961242675782	1450.318237304688	-1054.597412109375	-379.0924987792969	1378.647705078125	-1171.232421875	-365.5123596191407	1329.991577148438	-1177.139282226563	-415.1214294433595	1335.14794921875	-1212.75830078125	-459.0220336914064	1254.9208984375	-1264.975219726563	-530.1932373046876	1245.4814453125	-1221.055786132813	-404.4066467285157	1037.69189453125	-1121.244262695313	-371.9549560546876	1015.494689941406	-1183.953247070313	-366.4846496582032	1022.744995117188	-1076.421020507813	-254.0489959716797	1428.082641601563	-713.9503784179689	-338.1954345703126	1350.6064453125	-569.4151611328126	-329.8392333984376	1301.560791015625	-566.5484008789064	-373.8004455566407	1308.975708007813	-525.9641723632814	-405.0971679687501	1231.589721679688	-483.5608520507814	-486.702117919922	1233.944946289063	-530.1248168945314	-425.5981445312501	1022.227416992188	-649.1136474609376	-378.6888427734376	989.872741699219	-597.8866577148439	-368.6312561035157	1011.928283691406	-697.5532836914064	-322.7128295898438	1018.424072265625	-1025.950805664063	-321.1223754882813	1000.24169921875	-777.1115722656252	-500.4157714843751	1082.903686523438	-887.7578125000002	-513.8108520507814	1055.257202148438	-915.3936767578127	-516.7542114257814	1052.885986328125	-859.5813598632815	-351.2653198242188	718.6257934570314	-1128.21044921875	-308.1280517578126	645.3800659179689	-1128.409057617188	-265.1312561035157	649.0587768554689	-1104.273193359375	-331.2696838378907	590.9762573242189	-1129.801879882813	-328.1546630859376	532.7886352539064	-1143.233154296875	-315.2486267089844	501.8057556152345	-1010.389221191406	-297.1068115234376	326.0299377441407	-1131.742553710938	-363.7373352050782	301.5837707519532	-1183.308715820313	-324.1303405761719	287.5638122558594	-1167.888671875	-330.1987915039063	205.1422424316407	-1147.266235351563	-406.4371643066407	94.92550659179689	-1187.149169921875	-389.7587890625001	109.9224166870117	-1099.910034179688	-463.3843688964845	56.40670394897462	-1145.689453125	-236.7679748535157	57.6512794494629	-1121.948852539063	-237.4080047607422	62.30854797363283	-1160.480224609375	-275.0967102050782	40.95905303955079	-1212.588134765625	-405.1766662597657	787.736022949219	-684.1530761718751	-364.7046813964844	735.2694702148439	-678.3626708984376	-331.8893737792969	738.9824218750001	-683.7317504882814	-386.1066284179689	654.3979492187501	-689.2510375976564	-358.6701354980469	507.0964660644532	-686.9351806640626	-349.4516296386719	480.5224609375001	-813.6020507812502	-324.0137939453126	333.2881469726563	-752.3948364257814	-355.4982910156251	261.9533691406251	-676.0516357421876	-331.2175903320313	254.0042724609376	-717.3903808593751	-350.3474121093751	206.5132598876954	-744.3327026367189	-411.2107238769532	85.82440185546876	-678.0786743164064	-396.6576232910157	99.11666107177737	-766.7287597656251	-475.3923950195314	43.22938537597657	-731.6363525390626	-245.7011260986329	55.55272674560548	-720.6436157226564	-249.8879394531251	54.67625808715822	-679.7661743164064	-294.1504821777344	33.51754760742188	-634.2622680664064	
